<svg width="1027" height="583" viewBox="0 0 1027 583" fill="none" xmlns="http://www.w3.org/2000/svg">
<path fill-rule="evenodd" clip-rule="evenodd" d="M472.826 20.7237C473.653 21.5502 478.815 27.8594 485.222 33.7989C516.804 63.0792 539.811 109.248 548.262 155.922C549.402 162.216 550.797 185.527 551.365 207.724L552.394 248.082H512.399C490.401 248.082 471.998 247.928 472 248.692C472.002 249.456 476.878 253.788 482.343 257.36C504.831 272.063 530.01 299.914 541.925 323.27C555.338 349.555 561.86 378.821 561.77 412.297C561.616 468.994 541.602 515.206 500.073 554.736L482.988 571L540.63 570.508H598.763V467.499L599.253 364.981H767.698H936.144V309.315V253.649H767.683H599.221V191.182V128.716L813.111 129.978L1027 131.237V75.8443V19.2265H968.796C936.784 18.553 811.998 18.0019 691.496 18C502.831 17.9963 472.826 19.0706 472.826 20.7237Z" fill="#5096FF"/>
<path fill-rule="evenodd" clip-rule="evenodd" d="M207.886 1.17658C185.142 3.63652 150.588 10.7968 131.072 17.0935C43.0081 45.5017 -4.06111 105.944 0.275119 185.055C4.00675 253.122 41.7972 298.426 114.553 322.053C133.983 328.363 160.09 333.235 212.841 340.4C259.423 346.725 322.355 356.149 333.43 358.457C361.372 364.278 379.037 371.896 388.261 382.101C395.789 390.428 398.359 398.359 398.538 413.812C398.866 442.457 384.921 456.174 348.297 463.229C322.828 468.134 271.523 469.602 228.376 466.656C180.628 463.397 154.734 453.894 141.005 434.596C134.388 425.293 132.485 417.981 130.982 396.064L129.82 379.142H67.2612H4.7022L4.70385 391.937C4.70881 417.068 12.367 449.179 24.0476 473.034C45.2001 516.238 86.0152 548.343 141.81 565.661C208.697 586.424 308.473 588.818 378.381 571.337C433.811 557.478 474.692 531.569 500.136 494.173C526.548 455.357 532.622 396.644 514.963 350.877C499.85 311.713 465.281 281.615 415.536 264.309C386.454 254.192 375.639 251.955 292.132 238.774C268.964 235.117 235.885 229.89 218.623 227.159C144.152 215.376 126.943 204.156 126.943 167.383C126.943 147.563 138.19 132.874 159.459 124.921C181.406 116.714 190.233 115.811 248.357 115.831C309.329 115.853 322.412 117.309 347.154 126.833C358.302 131.124 362.477 133.83 370.855 142.192C383.149 154.464 386.092 162.44 387.473 187.217L388.416 204.14H451.778H515.138L515.134 193.821C515.117 155.017 501.396 111.393 480.397 83.3682C448.309 40.5455 399.038 15.1949 325.17 3.50609C304.748 0.273503 229.955 -1.21236 207.886 1.17658Z" fill="#00105A"/>
</svg>
